<mxfile host="app.diagrams.net" modified="2023-05-18T14:44:56.169Z" agent="Mozilla/5.0 (Windows NT 10.0; Win64; x64) AppleWebKit/537.36 (KHTML, like Gecko) Chrome/113.0.0.0 Safari/537.36 Edg/113.0.1774.42" etag="mYjvniqShWbpVKLQ5eDe" version="21.3.2" type="device">
  <diagram name="Страница 1" id="7vSFJMYL1m2m35XQhISY">
    <mxGraphModel dx="883" dy="502" grid="1" gridSize="10" guides="1" tooltips="1" connect="1" arrows="1" fold="1" page="1" pageScale="1" pageWidth="827" pageHeight="1169" math="0" shadow="0">
      <root>
        <mxCell id="0" />
        <mxCell id="1" parent="0" />
        <mxCell id="HxeOwi_Cg_TVav6lxFZV-1" value="Start" style="ellipse;whiteSpace=wrap;html=1;" parent="1" vertex="1">
          <mxGeometry x="240" y="10" width="120" height="80" as="geometry" />
        </mxCell>
        <mxCell id="HxeOwi_Cg_TVav6lxFZV-2" value="" style="endArrow=classic;html=1;rounded=0;exitX=0.5;exitY=1;exitDx=0;exitDy=0;" parent="1" source="HxeOwi_Cg_TVav6lxFZV-1" target="HxeOwi_Cg_TVav6lxFZV-3" edge="1">
          <mxGeometry width="50" height="50" relative="1" as="geometry">
            <mxPoint x="360" y="260" as="sourcePoint" />
            <mxPoint x="300" y="140" as="targetPoint" />
          </mxGeometry>
        </mxCell>
        <mxCell id="HxeOwi_Cg_TVav6lxFZV-3" value="&lt;div style=&quot;font-family: Consolas, &amp;quot;Courier New&amp;quot;, monospace; font-size: 14px; line-height: 19px;&quot;&gt;&lt;span style=&quot;background-color: rgb(255, 255, 255);&quot;&gt;String[] array = new String[size]&lt;/span&gt;&lt;/div&gt;&lt;div style=&quot;font-family: Consolas, &amp;quot;Courier New&amp;quot;, monospace; font-size: 14px; line-height: 19px;&quot;&gt;&lt;span style=&quot;background-color: rgb(255, 255, 255);&quot;&gt;size = int.Parse(ReadLine())&lt;/span&gt;&lt;div style=&quot;line-height: 19px;&quot;&gt;&lt;span style=&quot;background-color: rgb(255, 255, 255);&quot;&gt;array[i] = ReadLine()&lt;/span&gt;&lt;/div&gt;&lt;/div&gt;" style="rounded=0;whiteSpace=wrap;html=1;" parent="1" vertex="1">
          <mxGeometry x="155" y="110" width="290" height="80" as="geometry" />
        </mxCell>
        <mxCell id="HxeOwi_Cg_TVav6lxFZV-4" value="Yes" style="endArrow=classic;html=1;rounded=0;exitX=0.5;exitY=1;exitDx=0;exitDy=0;" parent="1" source="X0NOR9C7EN4ClOok8ofG-3" target="HxeOwi_Cg_TVav6lxFZV-5" edge="1">
          <mxGeometry width="50" height="50" relative="1" as="geometry">
            <mxPoint x="360" y="230" as="sourcePoint" />
            <mxPoint x="300" y="230" as="targetPoint" />
          </mxGeometry>
        </mxCell>
        <mxCell id="HxeOwi_Cg_TVav6lxFZV-5" value="&lt;div style=&quot;font-family: Consolas, &amp;quot;Courier New&amp;quot;, monospace; font-size: 14px; line-height: 19px;&quot;&gt;&lt;span style=&quot;background-color: rgb(255, 255, 255);&quot;&gt;array[i].Length &amp;lt;= 3&lt;/span&gt;&lt;/div&gt;" style="rhombus;whiteSpace=wrap;html=1;" parent="1" vertex="1">
          <mxGeometry x="190" y="460" width="220" height="80" as="geometry" />
        </mxCell>
        <mxCell id="HxeOwi_Cg_TVav6lxFZV-8" value="Yes" style="endArrow=classic;html=1;rounded=0;exitX=0.5;exitY=1;exitDx=0;exitDy=0;" parent="1" source="HxeOwi_Cg_TVav6lxFZV-5" target="HxeOwi_Cg_TVav6lxFZV-9" edge="1">
          <mxGeometry width="50" height="50" relative="1" as="geometry">
            <mxPoint x="360" y="230" as="sourcePoint" />
            <mxPoint x="300" y="360" as="targetPoint" />
          </mxGeometry>
        </mxCell>
        <mxCell id="HxeOwi_Cg_TVav6lxFZV-9" value="&lt;div style=&quot;font-family: Consolas, &amp;quot;Courier New&amp;quot;, monospace; font-size: 14px; line-height: 19px;&quot;&gt;&lt;span style=&quot;background-color: rgb(255, 255, 255);&quot;&gt;newArray[index] = array[i]&lt;/span&gt;&lt;/div&gt;&lt;div style=&quot;font-family: Consolas, &amp;quot;Courier New&amp;quot;, monospace; font-size: 14px; line-height: 19px;&quot;&gt;&lt;span style=&quot;background-color: rgb(255, 255, 255);&quot;&gt;index=index+1&lt;/span&gt;&lt;br&gt;&lt;/div&gt;" style="rounded=0;whiteSpace=wrap;html=1;" parent="1" vertex="1">
          <mxGeometry x="187.5" y="585" width="225" height="60" as="geometry" />
        </mxCell>
        <mxCell id="HxeOwi_Cg_TVav6lxFZV-11" value="&lt;div style=&quot;font-family: Consolas, &amp;quot;Courier New&amp;quot;, monospace; font-size: 14px; line-height: 19px;&quot;&gt;&lt;span style=&quot;background-color: rgb(255, 255, 255);&quot;&gt;i=i+1&lt;/span&gt;&lt;/div&gt;" style="rounded=0;whiteSpace=wrap;html=1;" parent="1" vertex="1">
          <mxGeometry x="250" y="710" width="100" height="40" as="geometry" />
        </mxCell>
        <mxCell id="HxeOwi_Cg_TVav6lxFZV-15" value="print(newArray)&amp;nbsp;" style="rounded=0;whiteSpace=wrap;html=1;" parent="1" vertex="1">
          <mxGeometry x="470" y="340" width="120" height="60" as="geometry" />
        </mxCell>
        <mxCell id="X0NOR9C7EN4ClOok8ofG-2" value="" style="endArrow=classic;html=1;rounded=0;exitX=0.5;exitY=1;exitDx=0;exitDy=0;" parent="1" source="HxeOwi_Cg_TVav6lxFZV-3" target="X0NOR9C7EN4ClOok8ofG-1" edge="1">
          <mxGeometry width="50" height="50" relative="1" as="geometry">
            <mxPoint x="300" y="190" as="sourcePoint" />
            <mxPoint x="303" y="390" as="targetPoint" />
          </mxGeometry>
        </mxCell>
        <mxCell id="X0NOR9C7EN4ClOok8ofG-1" value="&lt;div style=&quot;font-family: Consolas, &amp;quot;Courier New&amp;quot;, monospace; font-size: 14px; line-height: 19px;&quot;&gt;&lt;div style=&quot;line-height: 19px;&quot;&gt;&lt;span style=&quot;background-color: rgb(255, 255, 255);&quot;&gt;String[] newArray = new String[size]&lt;/span&gt;&lt;/div&gt;&lt;div style=&quot;line-height: 19px;&quot;&gt;&lt;div style=&quot;line-height: 19px;&quot;&gt;&lt;span style=&quot;background-color: rgb(255, 255, 255);&quot;&gt;index = 0&lt;/span&gt;&lt;/div&gt;&lt;/div&gt;&lt;div style=&quot;line-height: 19px;&quot;&gt;&lt;span style=&quot;background-color: rgb(255, 255, 255);&quot;&gt;i = 0&lt;/span&gt;&lt;/div&gt;&lt;/div&gt;" style="rounded=0;whiteSpace=wrap;html=1;" parent="1" vertex="1">
          <mxGeometry x="155" y="220" width="290" height="80" as="geometry" />
        </mxCell>
        <mxCell id="X0NOR9C7EN4ClOok8ofG-4" value="" style="endArrow=classic;html=1;rounded=0;exitX=0.5;exitY=1;exitDx=0;exitDy=0;" parent="1" source="X0NOR9C7EN4ClOok8ofG-1" target="X0NOR9C7EN4ClOok8ofG-3" edge="1">
          <mxGeometry width="50" height="50" relative="1" as="geometry">
            <mxPoint x="300" y="300" as="sourcePoint" />
            <mxPoint x="303" y="440" as="targetPoint" />
          </mxGeometry>
        </mxCell>
        <mxCell id="X0NOR9C7EN4ClOok8ofG-3" value="&lt;div style=&quot;font-family: Consolas, &amp;quot;Courier New&amp;quot;, monospace; font-size: 14px; line-height: 19px;&quot;&gt;&lt;span style=&quot;background-color: rgb(255, 255, 255);&quot;&gt;i&amp;nbsp;&amp;lt;&amp;nbsp;size&lt;/span&gt;&lt;/div&gt;" style="rhombus;whiteSpace=wrap;html=1;" parent="1" vertex="1">
          <mxGeometry x="190" y="330" width="220" height="80" as="geometry" />
        </mxCell>
        <mxCell id="vZwrTmk-clX-Xn7GHh2u-1" value="" style="endArrow=classic;html=1;rounded=0;entryX=0;entryY=0.5;entryDx=0;entryDy=0;exitX=0;exitY=0.5;exitDx=0;exitDy=0;" parent="1" source="HxeOwi_Cg_TVav6lxFZV-11" target="X0NOR9C7EN4ClOok8ofG-3" edge="1">
          <mxGeometry width="50" height="50" relative="1" as="geometry">
            <mxPoint x="180" y="800" as="sourcePoint" />
            <mxPoint x="120" y="350" as="targetPoint" />
            <Array as="points">
              <mxPoint x="80" y="730" />
              <mxPoint x="80" y="500" />
              <mxPoint x="80" y="460" />
              <mxPoint x="80" y="370" />
            </Array>
          </mxGeometry>
        </mxCell>
        <mxCell id="vZwrTmk-clX-Xn7GHh2u-2" value="No" style="endArrow=classic;html=1;rounded=0;entryX=1;entryY=0.5;entryDx=0;entryDy=0;" parent="1" target="HxeOwi_Cg_TVav6lxFZV-11" edge="1">
          <mxGeometry width="50" height="50" relative="1" as="geometry">
            <mxPoint x="410" y="500" as="sourcePoint" />
            <mxPoint x="510" y="810" as="targetPoint" />
            <Array as="points">
              <mxPoint x="510" y="500" />
              <mxPoint x="510" y="730" />
            </Array>
          </mxGeometry>
        </mxCell>
        <mxCell id="vZwrTmk-clX-Xn7GHh2u-3" value="" style="endArrow=classic;html=1;rounded=0;exitX=0.5;exitY=1;exitDx=0;exitDy=0;entryX=0.5;entryY=0;entryDx=0;entryDy=0;" parent="1" source="HxeOwi_Cg_TVav6lxFZV-9" target="HxeOwi_Cg_TVav6lxFZV-11" edge="1">
          <mxGeometry width="50" height="50" relative="1" as="geometry">
            <mxPoint x="390" y="630" as="sourcePoint" />
            <mxPoint x="440" y="580" as="targetPoint" />
          </mxGeometry>
        </mxCell>
        <mxCell id="u6fzITaiOyFhzfBw6Ol3-3" value="No" style="endArrow=classic;html=1;rounded=0;exitX=1;exitY=0.5;exitDx=0;exitDy=0;entryX=0;entryY=0.5;entryDx=0;entryDy=0;" edge="1" parent="1" source="X0NOR9C7EN4ClOok8ofG-3" target="HxeOwi_Cg_TVav6lxFZV-15">
          <mxGeometry width="50" height="50" relative="1" as="geometry">
            <mxPoint x="390" y="500" as="sourcePoint" />
            <mxPoint x="440" y="450" as="targetPoint" />
          </mxGeometry>
        </mxCell>
      </root>
    </mxGraphModel>
  </diagram>
</mxfile>
